<svg xmlns="http://www.w3.org/2000/svg" width="2204" height="713" viewBox="0 0 2204 713" role="img" aria-labelledby="title desc">
  <title id="title">AI carousel generator preview</title>
  <desc id="desc">Editor mockup showing prompt controls, brand settings, slide preview, thumbnails, and export actions.</desc>
  <defs>
    <filter id="shadow" x="-10%" y="-20%" width="120%" height="140%">
      <feDropShadow dx="0" dy="14" stdDeviation="18" flood-color="#0f172a" flood-opacity="0.08"/>
    </filter>
    <linearGradient id="slide" x1="0" x2="1" y1="0" y2="1">
      <stop offset="0" stop-color="#111827"/>
      <stop offset="0.56" stop-color="#1e293b"/>
      <stop offset="1" stop-color="#7c3aed"/>
    </linearGradient>
  </defs>
  <rect width="2204" height="713" fill="#f8fafc"/>
  <rect x="38" y="34" width="604" height="645" rx="28" fill="#ffffff" filter="url(#shadow)"/>
  <rect x="76" y="72" width="520" height="60" rx="16" fill="#f1f5f9"/>
  <rect x="88" y="82" width="138" height="40" rx="12" fill="#ffffff"/>
  <text x="118" y="108" fill="#0f172a" font-family="Inter, Arial, sans-serif" font-size="18" font-weight="800">Content</text>
  <text x="272" y="108" fill="#64748b" font-family="Inter, Arial, sans-serif" font-size="18" font-weight="750">Brand</text>
  <text x="406" y="108" fill="#64748b" font-family="Inter, Arial, sans-serif" font-size="18" font-weight="750">Export</text>
  <text x="76" y="184" fill="#0f172a" font-family="Inter, Arial, sans-serif" font-size="22" font-weight="800">Prompt</text>
  <rect x="76" y="212" width="520" height="136" rx="24" fill="#ffffff" stroke="#e2e8f0" stroke-width="2"/>
  <text x="110" y="258" fill="#64748b" font-family="Inter, Arial, sans-serif" font-size="25" font-weight="550">Turn a topic into a practical</text>
  <text x="110" y="296" fill="#64748b" font-family="Inter, Arial, sans-serif" font-size="25" font-weight="550">LinkedIn carousel...</text>
  <rect x="476" y="282" width="72" height="44" rx="22" fill="#2563eb"/>
  <text x="500" y="311" fill="#ffffff" font-family="Inter, Arial, sans-serif" font-size="22" font-weight="900">AI</text>
  <text x="76" y="404" fill="#0f172a" font-family="Inter, Arial, sans-serif" font-size="22" font-weight="800">Slide content</text>
  <rect x="76" y="432" width="520" height="158" rx="20" fill="#ffffff" stroke="#e2e8f0" stroke-width="2"/>
  <text x="106" y="472" fill="#0f172a" font-family="Inter, Arial, sans-serif" font-size="20" font-weight="750">Title: Feedback is a growth tool</text>
  <text x="106" y="514" fill="#475569" font-family="Inter, Arial, sans-serif" font-size="18" font-weight="650">- Make the hook specific</text>
  <text x="106" y="548" fill="#475569" font-family="Inter, Arial, sans-serif" font-size="18" font-weight="650">- Keep each line readable</text>
  <text x="106" y="582" fill="#475569" font-family="Inter, Arial, sans-serif" font-size="18" font-weight="650">- End with one action</text>
  <rect x="682" y="34" width="1484" height="645" rx="28" fill="#ffffff" filter="url(#shadow)"/>
  <rect x="720" y="72" width="148" height="56" rx="16" fill="#ffffff" stroke="#e2e8f0"/>
  <text x="774" y="107" fill="#0f172a" font-family="Inter, Arial, sans-serif" font-size="18" font-weight="800">Save</text>
  <rect x="888" y="72" width="148" height="56" rx="16" fill="#ffffff" stroke="#e2e8f0"/>
  <text x="932" y="107" fill="#0f172a" font-family="Inter, Arial, sans-serif" font-size="18" font-weight="800">Undo</text>
  <rect x="1868" y="72" width="236" height="56" rx="16" fill="#2563eb"/>
  <text x="1934" y="107" fill="#ffffff" font-family="Inter, Arial, sans-serif" font-size="20" font-weight="850">Download</text>
  <rect x="852" y="154" width="906" height="452" rx="10" fill="url(#slide)"/>
  <rect x="900" y="216" width="558" height="82" rx="0" fill="#db2777"/>
  <text x="926" y="273" fill="#ffffff" font-family="Inter, Arial, sans-serif" font-size="58" font-weight="900">Feedback is a</text>
  <rect x="900" y="320" width="456" height="78" rx="0" fill="#db2777"/>
  <text x="926" y="376" fill="#ffffff" font-family="Inter, Arial, sans-serif" font-size="58" font-weight="900">growth tool</text>
  <rect x="900" y="432" width="576" height="40" rx="0" fill="#db2777"/>
  <text x="924" y="459" fill="#ffffff" font-family="Inter, Arial, sans-serif" font-size="25" font-weight="750">We learn from feedback all the time</text>
  <rect x="900" y="486" width="436" height="40" rx="0" fill="#be185d"/>
  <text x="924" y="513" fill="#ffffff" font-family="Inter, Arial, sans-serif" font-size="25" font-weight="750">A hot stove teaches fast</text>
  <rect x="900" y="540" width="506" height="40" rx="0" fill="#be185d"/>
  <text x="924" y="567" fill="#ffffff" font-family="Inter, Arial, sans-serif" font-size="25" font-weight="750">So does praise and correction</text>
  <circle cx="928" cy="572" r="28" fill="#db2777"/>
  <text x="982" y="564" fill="#ffffff" font-family="Inter, Arial, sans-serif" font-size="22" font-weight="850">Your Name</text>
  <text x="982" y="592" fill="#cbd5e1" font-family="Inter, Arial, sans-serif" font-size="16" font-weight="650">@your_handle</text>
  <rect x="1802" y="154" width="264" height="452" rx="24" fill="#f8fafc" stroke="#e2e8f0"/>
  <text x="1834" y="202" fill="#0f172a" font-family="Inter, Arial, sans-serif" font-size="22" font-weight="800">Brand preset</text>
  <rect x="1834" y="230" width="200" height="40" rx="20" fill="#111827"/>
  <rect x="1834" y="292" width="58" height="58" rx="18" fill="#db2777"/>
  <rect x="1908" y="292" width="58" height="58" rx="18" fill="#2563eb"/>
  <rect x="1982" y="292" width="58" height="58" rx="18" fill="#f59e0b"/>
  <text x="1834" y="410" fill="#0f172a" font-family="Inter, Arial, sans-serif" font-size="22" font-weight="800">AI suggestions</text>
  <rect x="1834" y="438" width="200" height="46" rx="14" fill="#ffffff" stroke="#e2e8f0"/>
  <text x="1854" y="468" fill="#475569" font-family="Inter, Arial, sans-serif" font-size="16" font-weight="750">Tighten hook</text>
  <rect x="1834" y="500" width="200" height="46" rx="14" fill="#ffffff" stroke="#e2e8f0"/>
  <text x="1854" y="530" fill="#475569" font-family="Inter, Arial, sans-serif" font-size="16" font-weight="750">Make it shorter</text>
  <rect x="1834" y="562" width="200" height="46" rx="14" fill="#ffffff" stroke="#e2e8f0"/>
  <text x="1854" y="592" fill="#475569" font-family="Inter, Arial, sans-serif" font-size="16" font-weight="750">Add CTA</text>
  <g>
    <rect x="902" y="626" width="118" height="42" rx="14" fill="#e2e8f0"/>
    <rect x="1040" y="626" width="118" height="42" rx="14" fill="#cbd5e1"/>
    <rect x="1178" y="626" width="118" height="42" rx="14" fill="#cbd5e1"/>
    <rect x="1316" y="626" width="118" height="42" rx="14" fill="#cbd5e1"/>
    <rect x="1454" y="626" width="118" height="42" rx="14" fill="#cbd5e1"/>
  </g>
</svg>
