<svg xmlns="http://www.w3.org/2000/svg" width="2204" height="713" viewBox="0 0 2204 713" role="img" aria-labelledby="title desc">
  <title id="title">Authentication and access management preview</title>
  <desc id="desc">Dashboard mockup showing authentication, users, roles, permission matrix, protected APIs, and audit logs.</desc>
  <defs>
    <filter id="shadow" x="-10%" y="-20%" width="120%" height="140%">
      <feDropShadow dx="0" dy="14" stdDeviation="18" flood-color="#0f172a" flood-opacity="0.08"/>
    </filter>
    <linearGradient id="sidebar" x1="0" x2="1" y1="0" y2="1">
      <stop offset="0" stop-color="#0f172a"/>
      <stop offset="1" stop-color="#073b4c"/>
    </linearGradient>
  </defs>
  <rect width="2204" height="713" fill="#f8fafc"/>
  <rect x="0" y="0" width="292" height="713" fill="url(#sidebar)"/>
  <rect x="30" y="34" width="44" height="44" rx="14" fill="#14b8a6"/>
  <path d="M43 56h18M52 47v18" stroke="#ecfeff" stroke-width="5" stroke-linecap="round"/>
  <text x="92" y="54" fill="#f8fafc" font-family="Inter, Arial, sans-serif" font-size="27" font-weight="750">Access Guard</text>
  <text x="92" y="85" fill="#99f6e4" font-family="Inter, Arial, sans-serif" font-size="15" font-weight="600">Auth, users, and RBAC</text>
  <g font-family="Inter, Arial, sans-serif" font-size="18" font-weight="650">
    <rect x="28" y="126" width="236" height="54" rx="14" fill="#0f766e"/>
    <text x="82" y="160" fill="#ffffff">Overview</text>
    <text x="82" y="226" fill="#cbd5e1">Organizations</text>
    <text x="82" y="292" fill="#cbd5e1">Members</text>
    <text x="82" y="358" fill="#cbd5e1">Roles</text>
    <text x="82" y="424" fill="#cbd5e1">Protected APIs</text>
    <text x="82" y="490" fill="#cbd5e1">Audit logs</text>
  </g>
  <rect x="330" y="34" width="1840" height="645" rx="28" fill="#ffffff" filter="url(#shadow)"/>
  <text x="374" y="88" fill="#0f172a" font-family="Inter, Arial, sans-serif" font-size="40" font-weight="780">Auth &amp; Access Management</text>
  <text x="374" y="124" fill="#64748b" font-family="Inter, Arial, sans-serif" font-size="18">Manage authentication, users, roles, permissions, protected resources, and approvals from one platform.</text>
  <rect x="1744" y="60" width="192" height="46" rx="13" fill="#ecfeff" stroke="#99f6e4"/>
  <text x="1770" y="90" fill="#0f766e" font-family="Inter, Arial, sans-serif" font-size="17" font-weight="700">Production org</text>
  <rect x="1954" y="60" width="154" height="46" rx="13" fill="#0f766e"/>
  <text x="1983" y="90" fill="#ffffff" font-family="Inter, Arial, sans-serif" font-size="17" font-weight="750">New role</text>
  <g font-family="Inter, Arial, sans-serif">
    <rect x="374" y="160" width="386" height="102" rx="20" fill="#ffffff" stroke="#e2e8f0"/>
    <text x="404" y="198" fill="#64748b" font-size="17" font-weight="650">Organizations</text>
    <text x="404" y="238" fill="#0f172a" font-size="42" font-weight="800">32</text>
    <text x="498" y="236" fill="#0f766e" font-size="16" font-weight="700">+6 active this month</text>
    <rect x="788" y="160" width="386" height="102" rx="20" fill="#ffffff" stroke="#e2e8f0"/>
    <text x="818" y="198" fill="#64748b" font-size="17" font-weight="650">Role templates</text>
    <text x="818" y="238" fill="#0f172a" font-size="42" font-weight="800">48</text>
    <text x="918" y="236" fill="#475569" font-size="16" font-weight="650">shared across products</text>
    <rect x="1202" y="160" width="386" height="102" rx="20" fill="#ffffff" stroke="#e2e8f0"/>
    <text x="1232" y="198" fill="#64748b" font-size="17" font-weight="650">MFA coverage</text>
    <text x="1232" y="238" fill="#0f172a" font-size="42" font-weight="800">96%</text>
    <text x="1356" y="236" fill="#0f766e" font-size="16" font-weight="700">healthy</text>
    <rect x="1616" y="160" width="492" height="102" rx="20" fill="#ffffff" stroke="#e2e8f0"/>
    <text x="1646" y="198" fill="#64748b" font-size="17" font-weight="650">Pending access requests</text>
    <text x="1646" y="238" fill="#0f172a" font-size="42" font-weight="800">7</text>
    <rect x="1724" y="210" width="94" height="30" rx="15" fill="#fef3c7"/>
    <text x="1746" y="230" fill="#b45309" font-size="14" font-weight="800">Review</text>
  </g>
  <rect x="374" y="298" width="914" height="248" rx="22" fill="#ffffff" stroke="#e2e8f0"/>
  <text x="406" y="340" fill="#0f172a" font-family="Inter, Arial, sans-serif" font-size="23" font-weight="780">Permission matrix</text>
  <g font-family="Inter, Arial, sans-serif" font-size="15" font-weight="700" fill="#64748b">
    <text x="406" y="383">Role</text><text x="614" y="383">Users</text><text x="758" y="383">Payments</text><text x="930" y="383">Reports</text><text x="1086" y="383">Settings</text>
  </g>
  <g font-family="Inter, Arial, sans-serif" font-size="17" font-weight="650">
    <line x1="406" x2="1254" y1="404" y2="404" stroke="#e2e8f0"/>
    <text x="406" y="436" fill="#0f172a">Owner</text><text x="614" y="436" fill="#0f172a">12</text>
    <text x="772" y="436" fill="#0f766e">Allowed</text><text x="944" y="436" fill="#0f766e">Allowed</text><text x="1100" y="436" fill="#0f766e">Admin</text>
    <line x1="406" x2="1254" y1="459" y2="459" stroke="#e2e8f0"/>
    <text x="406" y="491" fill="#0f172a">Operator</text><text x="614" y="491" fill="#0f172a">84</text>
    <text x="772" y="491" fill="#0f766e">Read</text><text x="944" y="491" fill="#0f766e">Write</text><text x="1100" y="491" fill="#94a3b8">No access</text>
    <line x1="406" x2="1254" y1="514" y2="514" stroke="#e2e8f0"/>
    <text x="406" y="546" fill="#0f172a">Auditor</text><text x="614" y="546" fill="#0f172a">19</text>
    <text x="772" y="546" fill="#94a3b8">No access</text><text x="944" y="546" fill="#0f766e">Read</text><text x="1100" y="546" fill="#94a3b8">No access</text>
  </g>
  <rect x="1320" y="298" width="788" height="248" rx="22" fill="#ffffff" stroke="#e2e8f0"/>
  <text x="1352" y="340" fill="#0f172a" font-family="Inter, Arial, sans-serif" font-size="23" font-weight="780">Protected APIs</text>
  <g font-family="Inter, Arial, sans-serif" font-size="17" font-weight="650">
    <rect x="1352" y="368" width="100" height="34" rx="10" fill="#dbeafe"/><text x="1378" y="391" fill="#1d4ed8">GET</text><text x="1480" y="391" fill="#0f172a">/api/v1/users</text><text x="1840" y="391" fill="#0f766e">RBAC + MFA</text>
    <line x1="1352" x2="2074" y1="420" y2="420" stroke="#e2e8f0"/>
    <rect x="1352" y="440" width="100" height="34" rx="10" fill="#ccfbf1"/><text x="1372" y="463" fill="#0f766e">POST</text><text x="1480" y="463" fill="#0f172a">/api/v1/payments</text><text x="1840" y="463" fill="#0f766e">RBAC</text>
    <line x1="1352" x2="2074" y1="492" y2="492" stroke="#e2e8f0"/>
    <rect x="1352" y="512" width="100" height="34" rx="10" fill="#fef3c7"/><text x="1378" y="535" fill="#b45309">PUT</text><text x="1480" y="535" fill="#0f172a">/api/v1/settings</text><text x="1840" y="535" fill="#0f766e">Admin only</text>
  </g>
  <rect x="374" y="574" width="1734" height="72" rx="18" fill="#f8fafc" stroke="#e2e8f0"/>
  <text x="406" y="618" fill="#64748b" font-family="Inter, Arial, sans-serif" font-size="18" font-weight="650">Latest audit event</text>
  <text x="604" y="618" fill="#0f172a" font-family="Inter, Arial, sans-serif" font-size="18" font-weight="750">Jessica approved Payments:Write for Merchant Hub</text>
  <text x="1944" y="618" fill="#0f766e" font-family="Inter, Arial, sans-serif" font-size="18" font-weight="750">Traceable</text>
</svg>
